<svg xmlns="http://www.w3.org/2000/svg" xmlns:xlink="http://www.w3.org/1999/xlink" width="22" height="10" viewBox="0 0 22 10"><defs><path id="k2dia" d="M1279.001 45.687v.693l-2.494 1.485h-.703l-.48-.925h-.768l-.671.925h-.767l-.512-.628h-.704l-.511.628h-1.151l-.576-1.056h-1.183l-.704 1.122h-1.462c-.732 1.802-2.457 3.069-4.47 3.069-2.675 0-4.844-2.238-4.844-5 0-2.761 2.169-5 4.845-5 2.036 0 3.778 1.298 4.495 3.135h10.614zm-19.314-.892c-.636 0-1.151.532-1.151 1.188 0 .657.515 1.189 1.151 1.189s1.151-.532 1.151-1.189c0-.656-.515-1.188-1.15-1.188z"/></defs><g><g transform="translate(-1257 -41)"><use fill="#c40000" xlink:href="#k2dia"/></g></g></svg>