<svg xmlns="http://www.w3.org/2000/svg" xmlns:xlink="http://www.w3.org/1999/xlink" width="12" height="12" viewBox="0 0 12 12"><defs><path id="6t3ia" d="M1224.012 51.077c0 .25-.09.465-.274.649a.893.893 0 0 1-.65.272.857.857 0 0 1-.65-.272l-2.48-2.466a4.948 4.948 0 0 1-2.883.894 5.01 5.01 0 0 1-1.975-.4 5.088 5.088 0 0 1-1.627-1.082 5.048 5.048 0 0 1-1.084-1.62 4.965 4.965 0 0 1-.4-1.971c0-.687.133-1.345.4-1.97a5.055 5.055 0 0 1 1.084-1.622 5.107 5.107 0 0 1 1.627-1.081 5.004 5.004 0 0 1 1.975-.4c.689 0 1.348.133 1.977.4a5.09 5.09 0 0 1 1.626 1.08c.455.454.816.994 1.083 1.622.268.626.401 1.284.401 1.97a4.932 4.932 0 0 1-.895 2.877l2.478 2.47a.881.881 0 0 1 .267.65zm-4.65-3.715c.634-.633.951-1.392.951-2.281 0-.89-.317-1.65-.95-2.28a3.122 3.122 0 0 0-2.288-.948c-.89 0-1.654.316-2.287.947a3.102 3.102 0 0 0-.95 2.28c0 .89.317 1.649.95 2.282a3.123 3.123 0 0 0 2.287.948c.892 0 1.654-.316 2.287-.948z"/></defs><g><g transform="translate(-1212 -40)"><use xlink:href="#6t3ia"/></g></g></svg>